<?xml version="1.0" standalone="no"?>
<!DOCTYPE svg PUBLIC "-//W3C//DTD SVG 20010904//EN"
 "http://www.w3.org/TR/2001/REC-SVG-20010904/DTD/svg10.dtd">
<svg version="1.0" xmlns="http://www.w3.org/2000/svg"
 width="566.000000pt" height="566.000000pt" viewBox="0 0 566.000000 566.000000"
 preserveAspectRatio="xMidYMid meet">
<metadata>
Created by potrace 1.11, written by Peter Selinger 2001-2013
</metadata>
<g transform="translate(0.000000,566.000000) scale(0.100000,-0.100000)"
fill="#000000" stroke="none">
<path d="M2625 5574 c-16 -2 -77 -9 -135 -15 -738 -78 -1428 -472 -1872 -1069
-177 -238 -338 -564 -419 -845 -16 -55 -31 -109 -33 -120 -2 -11 -11 -49 -19
-85 -8 -36 -18 -81 -21 -100 -3 -19 -8 -44 -10 -55 -2 -12 -7 -48 -11 -80 -4
-33 -9 -71 -12 -85 -9 -46 -11 -534 -2 -610 5 -41 11 -100 14 -130 9 -82 52
-305 76 -390 11 -41 24 -91 29 -111 36 -142 182 -465 294 -649 369 -609 970
-1030 1650 -1154 185 -34 264 -41 486 -41 170 0 275 6 370 20 14 3 42 7 64 10
198 29 445 109 661 215 313 153 553 338 799 615 l36 40 0 -211 c0 -243 7 -292
55 -390 150 -306 581 -369 825 -122 59 61 115 168 130 248 12 66 12 2496 0
2610 -15 135 -21 184 -31 235 -5 27 -12 66 -15 85 -9 58 -63 259 -95 353 -54
160 -172 415 -230 499 -11 14 -19 29 -19 32 0 14 -181 271 -235 333 -137 159
-289 304 -430 413 -95 74 -240 170 -254 170 -6 0 -11 3 -11 8 0 4 -9 12 -19
17 -11 6 -59 31 -108 56 -214 113 -482 208 -713 253 -14 3 -36 7 -49 10 -21 5
-116 19 -216 32 -41 5 -492 12 -530 8z m520 -918 c304 -52 600 -190 820 -382
112 -97 232 -223 259 -273 5 -9 12 -18 16 -21 37 -28 178 -285 234 -427 36
-91 90 -282 100 -358 4 -22 8 -51 11 -65 20 -94 28 -423 14 -555 -42 -406
-199 -777 -449 -1059 -235 -266 -537 -450 -875 -534 -151 -38 -235 -47 -435
-47 -171 0 -232 5 -362 31 -522 103 -978 459 -1218 950 -87 178 -128 302 -165
499 -24 123 -30 197 -30 375 0 248 16 375 72 575 174 626 650 1104 1251 1260
35 9 116 24 180 34 144 23 438 21 577 -3z"/>
</g>
</svg>
