<svg xmlns="http://www.w3.org/2000/svg" xmlns:xlink="http://www.w3.org/1999/xlink" version="1.1" style="enable-background:new 0 0 512 512;" xml:space="preserve" width="512" height="512"><rect id="backgroundrect" width="100%" height="100%" x="0" y="0" fill="none" stroke="none"/>




















<g class="currentLayer" style=""><title>Layer 1</title><g id="svg_1" class="" fill-opacity="1" fill="#dddfeb">
	<g id="svg_2" fill="#dddfeb">
		<path d="M133.079,106.588l26.63,26.63C186.253,112.358,219.7,99.902,256,99.902V62.439    C209.366,62.439,166.531,79.018,133.079,106.588z" id="svg_3" fill="#dddfeb"/>
	</g>
</g><g id="svg_4" class="" fill-opacity="1" fill="#dddfeb">
	<g id="svg_5" fill="#dddfeb">
		<path d="M106.588,133.079C79.017,166.531,62.439,209.366,62.439,256h37.463c0-36.301,12.457-69.747,33.317-96.29L106.588,133.079z    " id="svg_6" fill="#dddfeb"/>
	</g>
</g><g id="svg_7" class="" fill-opacity="1" fill="#dddfeb">
	<g id="svg_8" fill="#dddfeb">
		<path d="M256,199.805c-30.986,0-56.195,25.209-56.195,56.195s25.209,56.195,56.195,56.195s56.195-25.209,56.195-56.195    S286.986,199.805,256,199.805z M256,274.732c-10.329,0-18.732-8.403-18.732-18.732s8.403-18.732,18.732-18.732    s18.732,8.403,18.732,18.732S266.329,274.732,256,274.732z" id="svg_9" fill="#dddfeb"/>
	</g>
</g><g id="svg_10" class="" fill-opacity="1" fill="#dddfeb">
	<g id="svg_11" fill="#dddfeb">
		<path d="M256,124.878c-72.301,0-131.122,58.821-131.122,131.122S183.699,387.122,256,387.122S387.122,328.301,387.122,256    S328.301,124.878,256,124.878z M256,349.659c-51.643,0-93.659-42.015-93.659-93.659s42.015-93.659,93.659-93.659    s93.659,42.015,93.659,93.659S307.643,349.659,256,349.659z" id="svg_12" fill="#dddfeb"/>
	</g>
</g><g id="svg_13" class="" fill-opacity="1" fill="#dddfeb">
	<g id="svg_14" fill="#dddfeb">
		<path d="M256,0C114.842,0,0,114.84,0,256s114.842,256,256,256s256-114.84,256-256S397.158,0,256,0z M256,474.537    c-120.501,0-218.537-98.036-218.537-218.537S135.499,37.463,256,37.463S474.537,135.499,474.537,256S376.501,474.537,256,474.537z    " id="svg_15" fill="#dddfeb"/>
	</g>
</g><g id="svg_16">
</g><g id="svg_17">
</g><g id="svg_18">
</g><g id="svg_19">
</g><g id="svg_20">
</g><g id="svg_21">
</g><g id="svg_22">
</g><g id="svg_23">
</g><g id="svg_24">
</g><g id="svg_25">
</g><g id="svg_26">
</g><g id="svg_27">
</g><g id="svg_28">
</g><g id="svg_29">
</g><g id="svg_30">
</g></g></svg>