<svg xmlns="http://www.w3.org/2000/svg" width="512" height="512" style=""><rect id="backgroundrect" width="100%" height="100%" x="0" y="0" fill="none" stroke="none"/><g class="currentLayer" style=""><title>Layer 1</title><g id="outline" class="selected" fill-opacity="1" fill="#dddfeb"><path d="M160,256a56,56,0,1,0-56-56A56.063,56.063,0,0,0,160,256Zm0-96a40,40,0,1,1-40,40A40.045,40.045,0,0,1,160,160Z" id="svg_1" fill="#dddfeb"/><path d="M352,144a56,56,0,1,0,56,56A56.063,56.063,0,0,0,352,144Zm0,96a40,40,0,1,1,40-40A40.045,40.045,0,0,1,352,240Z" id="svg_2" fill="#dddfeb"/><rect x="248" y="56" width="16" height="88" id="svg_3" fill="#dddfeb"/><path d="M155.28,89.541l9.438,12.92c.251-.184,25.313-18.372,47.812-25.871l-5.06-15.18C182.573,69.71,156.383,88.735,155.28,89.541Z" id="svg_4" fill="#dddfeb"/><path d="M472,304H416.562a23.951,23.951,0,0,0-19.968,10.688l-2.336,3.5a433.535,433.535,0,0,0,16.91-53.107,87.853,87.853,0,0,0,12.423-116.2c-2.463-34.7-15.855-63.773-36.94-80.013C362.986,50.583,305.226,16,256,16S149.014,50.583,125.358,68.862c-21.093,16.248-34.486,45.325-36.949,80.021a87.853,87.853,0,0,0,12.423,116.2,433.535,433.535,0,0,0,16.91,53.107l-2.336-3.5A23.951,23.951,0,0,0,95.438,304H40a24.028,24.028,0,0,0-24,24V472a24.028,24.028,0,0,0,24,24H95.438a23.951,23.951,0,0,0,19.968-10.688L140.281,448h27.743c14.843,28.228,48.688,48,87.976,48s73.133-19.772,87.976-48h27.743l24.875,37.312A23.951,23.951,0,0,0,416.562,496H472a24.028,24.028,0,0,0,24-24V328A24.028,24.028,0,0,0,472,304ZM352,272a72,72,0,1,1,72-72A72.081,72.081,0,0,1,352,272ZM88,200a72,72,0,1,1,72,72A72.081,72.081,0,0,1,88,200Zm72,88a88,88,0,1,0-52.623-158.491C112.155,108.7,121.8,91.8,135.132,81.53,152.96,67.754,209.428,32,256,32S359.04,67.754,376.878,81.538C390.2,91.8,399.846,108.7,404.623,129.509A87.991,87.991,0,1,0,390.8,278.968a419.73,419.73,0,0,1-14.21,40.3L361.306,352h-17.33c-14.843-28.228-48.688-48-87.976-48s-73.133,19.772-87.976,48h-17.33l-15.287-32.736a419.73,419.73,0,0,1-14.21-40.3A87.455,87.455,0,0,0,160,288Zm171.173,74.1a8.025,8.025,0,0,0,.37,1.078,56.755,56.755,0,0,1,2.166,5.907C316.245,349.052,287.919,336,256,336c-31.987,0-60.366,13.107-77.821,33.212C186.547,341.031,218.251,320,256,320,290.5,320,319.969,337.563,331.173,362.1ZM32,472V328a8.009,8.009,0,0,1,8-8h8V480H40A8.009,8.009,0,0,1,32,472Zm32,8V320H88V480Zm40-6.422V326.422l24,36v75.156ZM144,432V368h17.93A67.264,67.264,0,0,0,160,384v32a67.264,67.264,0,0,0,1.93,16Zm112,48c-44.112,0-80-28.71-80-64s35.888-64,80-64,80,28.71,80,64c0,.967-.038,1.926-.091,2.883-.034.572-.085,1.145-.138,1.717-.027.3-.053.592-.085.887a53.6,53.6,0,0,1-4.143,15.336,8,8,0,0,0-.37,1.076C319.969,462.437,290.5,480,256,480Zm96-64V384a67.264,67.264,0,0,0-1.93-16H368v64H350.07A67.264,67.264,0,0,0,352,416Zm32,21.578V362.422l24-36V473.578ZM424,320h24V480H424Zm56,152a8.009,8.009,0,0,1-8,8h-8V320h8a8.009,8.009,0,0,1,8,8Z" id="svg_5" fill="#dddfeb"/><rect x="248" y="248" width="16" height="40" id="svg_6" fill="#dddfeb"/><path d="M300.248,381.206C288.325,372.689,272.611,368,256,368s-32.325,4.689-44.248,13.206C199.015,390.3,192,402.66,192,416s7.015,25.7,19.752,34.794C223.675,459.311,239.389,464,256,464s32.325-4.689,44.248-13.206C312.985,441.7,320,429.34,320,416S312.985,390.3,300.248,381.206ZM304,416a22.79,22.79,0,0,1-4.261,12.925l-12.884-6.442A19.015,19.015,0,0,0,288,416c0-11.379-10.049-20.671-24-23.272v-8.253C286.369,387.1,304,400.467,304,416Zm-64,0c0-3.262,6.233-8,16-8s16,4.738,16,8-6.233,8-16,8S240,419.262,240,416Zm8-31.525v8.253c-13.951,2.6-24,11.893-24,23.272a19.015,19.015,0,0,0,1.145,6.483l-12.884,6.442A22.79,22.79,0,0,1,208,416C208,400.467,225.631,387.1,248,384.475ZM225.228,440.33l10.85-5.425a41.5,41.5,0,0,0,39.844,0l10.85,5.425a65.564,65.564,0,0,1-61.544,0Z" id="svg_7" fill="#dddfeb"/></g></g></svg>